<svg xmlns="http://www.w3.org/2000/svg" viewBox="0 0 640 520" role="img" aria-label="Cartoon child reading books">
  <defs>
    <linearGradient id="sky" x1="0" x2="1" y1="0" y2="1"><stop offset="0" stop-color="#dff6ff"/><stop offset="1" stop-color="#fff7df"/></linearGradient>
    <linearGradient id="book" x1="0" x2="1"><stop offset="0" stop-color="#7c5cff"/><stop offset="1" stop-color="#ff6b8a"/></linearGradient>
  </defs>
  <rect width="640" height="520" rx="42" fill="url(#sky)"/>
  <circle cx="540" cy="86" r="52" fill="#ffe37a" opacity=".75"/>
  <path d="M0 382c86-48 169-56 250-24s154 27 226-16c54-32 110-34 164-7v185H0z" fill="#9fe6bd"/>
  <path d="M70 388c76-34 149-38 218-12s145 18 225-23c42-21 85-25 127-11v178H70z" fill="#64cf8f"/>
  <ellipse cx="328" cy="420" rx="160" ry="34" fill="#000" opacity=".09"/>
  <circle cx="309" cy="190" r="72" fill="#ffd58a"/>
  <path d="M244 186c16-76 113-86 145-23 33 1 47 34 22 56-18 16-60 12-85 10-39-2-70 10-82-43z" fill="#7a4b22"/>
  <circle cx="286" cy="194" r="8" fill="#1c2742"/><circle cx="339" cy="194" r="8" fill="#1c2742"/>
  <path d="M296 225c18 14 43 13 60-2" stroke="#b85f45" stroke-width="8" stroke-linecap="round" fill="none"/>
  <path d="M236 258c49-38 134-38 184 0l-26 116H262z" fill="#6ec7ff"/>
  <path d="M176 322c44-35 102-36 146-2v102c-45-33-102-32-146 3z" fill="url(#book)"/>
  <path d="M322 320c45-34 103-33 146 2v103c-44-35-101-36-146-3z" fill="#27d07d"/>
  <path d="M198 348h88M198 376h84M358 350h80M358 378h72" stroke="#fff" stroke-width="10" stroke-linecap="round" opacity=".8"/>
  <g fill="#ffd84d">
    <path d="M96 112l12 26 28 4-20 19 5 28-25-14-25 14 5-28-20-19 28-4z"/>
    <path d="M518 244l8 17 18 3-13 13 3 18-16-9-16 9 3-18-13-13 18-3z"/>
  </g>
</svg>
